<svg width="48" height="48" viewBox="0 0 48 48" fill="none" xmlns="http://www.w3.org/2000/svg">
  <circle cx="24" cy="24" r="24" fill="#8ECDCF"/>
  <path d="M24 12C18.48 12 14 16.48 14 22C14 27.52 18.48 32 24 32C29.52 32 34 27.52 34 22C34 16.48 29.52 12 24 12ZM24 30C19.58 30 16 26.42 16 22C16 17.58 19.58 14 24 14C28.42 14 32 17.58 32 22C32 26.42 28.42 30 24 30Z" fill="white"/>
  <path d="M24 16C21.79 16 20 17.79 20 20C20 22.21 21.79 24 24 24C26.21 24 28 22.21 28 20C28 17.79 26.21 16 24 16ZM24 22C22.9 22 22 21.1 22 20C22 18.9 22.9 18 24 18C25.1 18 26 18.9 26 20C26 21.1 25.1 22 24 22Z" fill="white"/>
  <path d="M24 26C23.45 26 23 26.45 23 27V29C23 29.55 23.45 30 24 30C24.55 30 25 29.55 25 29V27C25 26.45 24.55 26 24 26Z" fill="white"/>
</svg>
